<svg width="133" height="79" viewBox="0 0 133 79" fill="none" xmlns="http://www.w3.org/2000/svg">
<g clip-path="url(#clip0_1407_6)">
<path d="M23.424 52.2733C25.7867 51.7547 27.8613 52.9649 28.6105 55.2124C29.2444 57.287 27.8613 59.9378 25.7291 60.3412C23.424 60.8599 21.1765 61.148 18.929 61.3785C17.0273 61.5514 14.7798 61.9548 12.878 61.3785C10.5729 60.7446 8.90172 58.9005 8.4407 56.5378C8.09493 54.7513 8.21019 52.9649 8.21019 51.1208C8.21019 47.4902 8.21019 43.9173 8.21019 40.3444C8.21019 33.1985 8.21019 26.0526 8.21019 18.9068C8.21019 16.4864 10.1119 14.8152 12.3594 14.6999C14.6069 14.5847 16.5086 16.7169 16.5086 18.9068C16.5086 22.595 16.5662 26.2831 16.5662 29.9713C16.5662 36.4833 16.5662 42.9376 16.5662 49.4496C16.5662 50.6598 16.5086 51.9852 16.5662 53.253C18.8714 53.1378 21.1188 52.792 23.424 52.2733ZM38.6737 54.2903C38.6161 56.6531 36.8296 58.3243 34.5245 58.4972C32.277 58.6124 30.2601 56.4802 30.3177 54.2903C30.5482 47.4902 30.8363 40.6325 31.0092 33.7748C31.0669 31.412 32.8533 29.6832 35.1584 29.6256C37.3483 29.5103 39.3653 31.5849 39.3076 33.7748C39.0771 40.6325 38.9043 47.4902 38.6737 54.2903ZM35.4466 25.7645C33.1415 25.7645 31.4126 23.8628 31.2974 21.6153C31.2397 19.3102 33.3143 17.4084 35.4466 17.4084C37.8093 17.4084 39.5382 19.3102 39.5958 21.6153C39.711 23.8628 37.6364 25.7645 35.4466 25.7645ZM43.7779 57.287C41.5304 56.7683 40.3778 54.2327 40.8388 52.1581C41.4151 49.9106 43.8931 48.758 45.9677 49.2767C48.1576 49.853 52.1339 50.8326 53.9204 48.8157C55.4187 46.9139 53.2288 45.1851 51.8458 44.1478C48.3305 41.5545 43.2016 38.4426 41.8185 34.3511C38.3032 24.0357 51.1542 17.2356 59.6832 17.4661C61.9883 17.5237 63.7171 19.4254 63.8324 21.6729C63.89 23.9204 61.8154 25.6492 59.6832 25.8221C53.2288 26.3408 45.5067 30.1442 52.4221 34.1782C55.4763 36.368 61.2391 39.941 62.8527 44.2631C63.7748 46.6258 63.4866 49.1614 62.4493 51.4089C59.2798 58.2666 51.039 58.9582 43.7779 57.287ZM69.2463 29.2798C66.9411 29.1645 65.2123 27.4933 65.097 25.1306C65.0394 22.9984 67.114 20.8661 69.2463 21.039C75.4124 21.3848 81.6363 21.3271 87.7448 20.8661C90.0499 20.6356 91.8364 22.9407 91.894 25.0153C92.0093 27.3781 89.9347 28.9917 87.7448 29.1645C85.6126 29.3374 83.4803 29.4527 81.2329 29.5103C80.4837 38.7308 79.9074 48.0089 79.504 57.2293C79.3888 59.6497 77.6599 61.3209 75.3548 61.4362C73.165 61.5514 71.0903 59.4768 71.2056 57.2293C71.5514 47.9512 72.1276 38.7308 72.9344 29.4527C71.7243 29.4527 70.5141 29.3951 69.2463 29.2798ZM90.4448 38.385C93.5567 29.0493 103.814 19.7136 114.303 26.2255C117.876 28.4154 120.642 31.8731 121.852 35.7918C123.869 42.2461 121.737 49.6801 116.954 54.3479C111.652 59.4192 103.469 61.0904 96.8991 57.3446C90.3871 53.5988 88.0244 45.3004 90.4448 38.385ZM111.364 48.1818C112.862 46.6834 113.611 44.6665 113.957 42.3037C114.937 36.1375 109.116 29.6832 103.642 33.89C101.221 35.6189 99.4347 38.0392 98.5127 40.863C97.533 43.7444 98.1093 46.3377 99.6076 48.2394C102.374 51.9852 108.079 51.6394 111.364 48.1818Z" fill="#F5841F"/>
</g>
<defs>
<clipPath id="clip0_1407_6">
<rect width="133" height="79" fill="white"/>
</clipPath>
</defs>
</svg>
